<svg xmlns="http://www.w3.org/2000/svg" viewBox="0 0 286 60" width="286" height="60"><style>@media (prefers-reduced-motion:reduce){*{animation:none!important}}</style><rect x="1" y="1" width="284" height="58" rx="29" fill="#0c1117" stroke="#1f2a34" stroke-width="2"/><path fill="#eaf0f4" d="M33.1 41V16.9H39.6Q42.2 16.9 43.4 18.2Q44.6 19.5 44.6 22.4V23.5Q44.6 25.2 44 26.2Q43.4 27.3 42.1 27.6Q43.8 28 44.3 29.5Q44.9 31 44.9 33.2Q44.9 35.6 44.4 37.3Q44 39.1 42.9 40Q41.7 41 39.6 41ZM37.8 26H38.8Q39.4 26 39.6 25.5Q39.8 25 39.8 24.2V21.8Q39.8 20.7 38.8 20.7H37.8ZM38.2 36.8Q40.1 36.8 40.1 35V32Q40.1 31 39.8 30.4Q39.5 29.8 38.7 29.8H37.8V36.7Q38.1 36.8 38.2 36.8ZM48 41V16.9H57.6V21.6H52.9V26.3H57.4V30.8H52.9V36.3H57.9V41ZM61 41V16.9H65.9L68.2 28.5V16.9H72.8V41H68.1L65.7 29V41ZM82 41.2Q79.4 41.2 77.8 39.6Q76.2 38 76.2 35V23.9Q76.2 20.4 77.6 18.6Q79 16.7 82.2 16.7Q83.9 16.7 85.2 17.3Q86.5 18 87.3 19.2Q88.1 20.5 88.1 22.4V26.5H83.3V23Q83.3 21.9 83 21.5Q82.7 21.1 82.2 21.1Q81.5 21.1 81.2 21.6Q81 22.1 81 22.9V35Q81 36 81.3 36.4Q81.6 36.8 82.2 36.8Q82.8 36.8 83 36.3Q83.3 35.8 83.3 35V30.6H88.1V35.2Q88.1 38.4 86.5 39.8Q84.9 41.2 82 41.2ZM91.2 41V16.9H96V25.5H98.3V16.9H103.1V41H98.3V30.1H96V41ZM106.7 41V16.9H114L116 31.6L118 16.9H125.4V41H121V23.7L118.3 41H114L111 23.7V41ZM128.4 41 130.7 16.9H138.9L141.2 41H136.6L136.3 37.1H133.4L133.1 41ZM133.7 33.3H135.9L134.9 21H134.7ZM144.2 41V16.9H151.5Q153.4 16.9 154.3 17.8Q155.3 18.6 155.6 20.1Q155.9 21.6 155.9 23.7Q155.9 25.6 155.4 26.8Q154.9 28 153.5 28.4Q154.7 28.7 155.1 29.6Q155.6 30.5 155.6 31.9V41H150.8V31.6Q150.8 30.5 150.4 30.3Q150 30 149 30V41ZM149.1 25.9H150.2Q151.2 25.9 151.2 23.7Q151.2 22.3 151 21.8Q150.8 21.4 150.2 21.4H149.1ZM159 41V16.9H163.8V26.6L166 16.9H170.8L168.2 28L171.4 41H166.4L163.8 29.4V41ZM181.1 41 183.5 16.9H191.6L193.9 41H189.4L189 37.1H186.1L185.8 41ZM186.5 33.3H188.6L187.6 21H187.4ZM196.9 41V16.9H204.3Q206.1 16.9 207.1 17.8Q208 18.6 208.3 20.1Q208.6 21.6 208.6 23.7Q208.6 25.6 208.1 26.8Q207.6 28 206.3 28.4Q207.4 28.7 207.9 29.6Q208.3 30.5 208.3 31.9V41H203.6V31.6Q203.6 30.5 203.1 30.3Q202.7 30 201.7 30V41ZM201.8 25.9H202.9Q203.9 25.9 203.9 23.7Q203.9 22.3 203.7 21.8Q203.5 21.4 202.9 21.4H201.8ZM211.7 41V16.9H221.3V21.6H216.6V26.3H221.2V30.8H216.6V36.3H221.7V41ZM224.8 41V16.9H229.7L231.9 28.5V16.9H236.6V41H231.9L229.5 29V41ZM239.5 41 241.9 16.9H250L252.3 41H247.8L247.4 37.1H244.5L244.2 41ZM244.9 33.3H247L246 21H245.8Z"/></svg>