<svg xmlns="http://www.w3.org/2000/svg" viewBox="0 0 1280 194" width="1280" height="194"><style>.sw{animation:sw 4s ease-in-out infinite alternate}@keyframes sw{to{transform:translateX(994px)}}@media (prefers-reduced-motion:reduce){*{animation:none!important}}</style><rect width="1280" height="194" rx="28" fill="#f4f7f9"/><path fill="#0b1218" d="M52.2 138.5V44H78.2Q88.4 44 93.5 49.7Q98.7 55.3 98.7 66.2V110.5Q98.7 123.9 94 131.2Q89.3 138.5 77.5 138.5ZM71.2 121.8H74.5Q79.7 121.8 79.7 116.8V68Q79.7 63.3 78.4 61.9Q77.2 60.5 73.3 60.5H71.2ZM106.4 138.5V44H144.2V62.3H125.7V80.7H143.5V98.5H125.7V120.1H145.5V138.5ZM174.2 139.4Q161.2 139.4 155.5 132.9Q149.8 126.5 149.8 112.4V103.2H168.5V115Q168.5 118.3 169.5 120.1Q170.5 122 172.9 122Q175.5 122 176.5 120.5Q177.5 119 177.5 115.5Q177.5 111.2 176.6 108.3Q175.8 105.3 173.7 102.7Q171.5 100 167.8 96.5L159.3 88.4Q149.8 79.4 149.8 67.9Q149.8 55.8 155.4 49.5Q161 43.1 171.6 43.1Q184.6 43.1 190.1 50.1Q195.5 57 195.5 71.1H176.3V64.6Q176.3 62.7 175.2 61.6Q174.1 60.5 172.2 60.5Q170 60.5 168.9 61.8Q167.9 63.1 167.9 65.1Q167.9 67 169 69.4Q170 71.7 173.2 74.7L184.1 85.1Q187.4 88.3 190.1 91.7Q192.9 95.2 194.5 99.8Q196.2 104.4 196.2 111Q196.2 124.3 191.3 131.8Q186.4 139.4 174.2 139.4ZM201.6 138.5V44H219.9V138.5ZM246.9 139.4Q226.6 139.4 226.6 110.4V69.6Q226.6 43.1 249.8 43.1Q259.4 43.1 264.5 47Q269.6 50.8 271.5 58.2Q273.5 65.5 273.5 76.1H255V67.7Q255 64.7 254.2 62.6Q253.3 60.5 250.7 60.5Q247.4 60.5 246.4 62.7Q245.3 64.9 245.3 67.6V113.4Q245.3 117.2 246.3 119.6Q247.3 122 250.2 122Q253.2 122 254.2 119.6Q255.2 117.2 255.2 113.3V99.8H250.2V83.5H273.3V138.5H265.7L262.5 130.6Q257.5 139.4 246.9 139.4ZM280.7 138.5V44H300.2L308.9 89.3V44H327.1V138.5H308.7L299.2 91.3V138.5ZM361.3 138.5V44H386.3Q394.1 44 398.7 47.5Q403.3 51 405.3 57.4Q407.3 63.9 407.3 72.8Q407.3 81.4 405.6 87.7Q403.9 94.1 399.7 97.6Q395.4 101.1 387.6 101.1H379.9V138.5ZM379.9 84.1H381Q386.2 84.1 387.4 81.2Q388.6 78.2 388.6 72.5Q388.6 67.1 387.4 64.2Q386.3 61.2 382 61.2H379.9ZM413.2 138.5V44H442.2Q449.5 44 453.2 47.3Q456.9 50.6 458.2 56.5Q459.4 62.5 459.4 70.5Q459.4 78.2 457.5 82.8Q455.5 87.5 450.1 89.2Q454.5 90.1 456.3 93.7Q458.1 97.2 458.1 102.8V138.5H439.5V101.5Q439.5 97.4 437.8 96.4Q436.1 95.4 432.4 95.4V138.5ZM432.5 79H437Q440.9 79 440.9 70.5Q440.9 64.9 440.1 63.2Q439.2 61.5 436.9 61.5H432.5ZM464.8 138.5V44H483.1V138.5ZM490.6 138.5V44H510L518.7 89.3V44H537V138.5H518.5L509.1 91.3V138.5ZM567.4 139.4Q557.1 139.4 550.9 133Q544.6 126.6 544.6 115.1V71.5Q544.6 57.8 550.1 50.4Q555.5 43.1 567.8 43.1Q574.5 43.1 579.8 45.6Q585 48.1 588 53Q591 57.9 591 65.4V81.7H572.2V67.7Q572.2 63.5 571.1 62Q570.1 60.5 567.8 60.5Q565.2 60.5 564.3 62.4Q563.4 64.4 563.4 67.5V114.8Q563.4 118.8 564.5 120.4Q565.7 122 567.8 122Q570.2 122 571.2 120Q572.2 118 572.2 114.8V97.8H591.2V115.7Q591.2 128.2 584.9 133.8Q578.7 139.4 567.4 139.4ZM596.7 138.5V44H614.9V138.5ZM622.4 138.5V44H647.4Q655.3 44 659.8 47.5Q664.4 51 666.4 57.4Q668.4 63.9 668.4 72.8Q668.4 81.4 666.8 87.7Q665.1 94.1 660.8 97.6Q656.5 101.1 648.7 101.1H641V138.5ZM641 84.1H642.1Q647.4 84.1 648.5 81.2Q649.7 78.2 649.7 72.5Q649.7 67.1 648.6 64.2Q647.4 61.2 643.1 61.2H641ZM674.4 138.5V44H693.3V122.4H712.7V138.5ZM718.1 138.5V44H755.9V62.3H737.3V80.7H755.2V98.5H737.3V120.1H757.1V138.5ZM785.8 139.4Q772.9 139.4 767.2 132.9Q761.4 126.5 761.4 112.4V103.2H780.1V115Q780.1 118.3 781.1 120.1Q782.1 122 784.6 122Q787.2 122 788.2 120.5Q789.2 119 789.2 115.5Q789.2 111.2 788.3 108.3Q787.4 105.3 785.3 102.7Q783.2 100 779.4 96.5L770.9 88.4Q761.4 79.4 761.4 67.9Q761.4 55.8 767.1 49.5Q772.7 43.1 783.3 43.1Q796.3 43.1 801.8 50.1Q807.2 57 807.2 71.1H788V64.6Q788 62.7 786.9 61.6Q785.8 60.5 783.9 60.5Q781.6 60.5 780.6 61.8Q779.5 63.1 779.5 65.1Q779.5 67 780.6 69.4Q781.7 71.7 784.9 74.7L795.8 85.1Q799 88.3 801.8 91.7Q804.5 95.2 806.2 99.8Q807.8 104.4 807.8 111Q807.8 124.3 802.9 131.8Q798 139.4 785.8 139.4Z"/><rect x="48" y="170" width="1184" height="2" fill="#d5dde3"/><rect class="sw" x="48" y="168" width="190" height="6" rx="3" fill="#0a7d6a"/></svg>